<svg width="81" height="51" viewBox="0 0 81 51" fill="none" xmlns="http://www.w3.org/2000/svg">
<path d="M20.3575 19.9822V13.1938H13.9282V10.1767H20.3575V3.38826H23.4823V10.1767H29.9116V13.1938H23.4823V19.9822H20.3575ZM39.778 23.9691C37.9342 23.9691 36.3778 23.6578 35.1087 23.0352C33.8636 22.3887 32.8219 21.6464 31.9839 20.8083L33.8875 18.1504C34.5819 18.797 35.3601 19.3716 36.2222 19.8745C37.0842 20.3534 38.0899 20.5928 39.2392 20.5928C40.5083 20.5928 41.5619 20.2097 42.4 19.4435C43.2381 18.6772 43.6571 17.5997 43.6571 16.2109C43.6571 14.846 43.274 13.7924 42.5077 13.0501C41.7415 12.3078 40.7238 11.9367 39.4547 11.9367C38.7124 11.9367 38.0899 12.0444 37.587 12.2599C37.0842 12.4515 36.4855 12.7748 35.7911 13.2297L33.8157 11.9726L34.4981 0.694438H46.7101V4.17845H38.0899L37.6229 9.70978C38.1018 9.47033 38.5688 9.29074 39.0237 9.17101C39.5026 9.02734 40.0414 8.95551 40.64 8.95551C41.957 8.95551 43.1543 9.20693 44.2318 9.70978C45.3093 10.2126 46.1714 10.9908 46.8179 12.0444C47.4883 13.098 47.8236 14.4509 47.8236 16.1031C47.8236 17.7553 47.4404 19.1681 46.6742 20.3414C45.9319 21.5147 44.9501 22.4127 43.7289 23.0352C42.5077 23.6578 41.1908 23.9691 39.778 23.9691ZM58.7316 23.9691C56.361 23.9691 54.4694 22.9395 53.0566 20.8802C51.6678 18.8209 50.9734 15.8637 50.9734 12.0085C50.9734 8.15334 51.6678 5.23204 53.0566 3.2446C54.4694 1.25715 56.361 0.263428 58.7316 0.263428C61.1022 0.263428 62.9819 1.25715 64.3707 3.2446C65.7834 5.23204 66.4898 8.15334 66.4898 12.0085C66.4898 15.8637 65.7834 18.8209 64.3707 20.8802C62.9819 22.9395 61.1022 23.9691 58.7316 23.9691ZM58.7316 20.7365C59.4739 20.7365 60.1324 20.4611 60.7071 19.9104C61.2817 19.3357 61.7247 18.4138 62.036 17.1447C62.3713 15.8756 62.5389 14.1636 62.5389 12.0085C62.5389 9.85345 62.3713 8.15334 62.036 6.9082C61.7247 5.66305 61.2817 4.78905 60.7071 4.28621C60.1324 3.75941 59.4739 3.49602 58.7316 3.49602C58.0132 3.49602 57.3667 3.75941 56.792 4.28621C56.2174 4.78905 55.7624 5.66305 55.4272 6.9082C55.0919 8.15334 54.9243 9.85345 54.9243 12.0085C54.9243 14.1636 55.0919 15.8756 55.4272 17.1447C55.7624 18.4138 56.2174 19.3357 56.792 19.9104C57.3667 20.4611 58.0132 20.7365 58.7316 20.7365ZM0.844233 50.5381H3.31622V44.6434H5.66143C9.04192 44.6434 11.5139 43.101 11.5139 39.6994C11.5139 36.171 9.04192 34.9878 5.57692 34.9878H0.844233V50.5381ZM3.31622 42.6785V36.9739H5.32338C7.81649 36.9739 9.08417 37.6288 9.08417 39.6994C9.08417 41.7277 7.901 42.6785 5.42902 42.6785H3.31622ZM14.3332 50.5381H16.784V43.3123C17.5024 41.4742 18.6433 40.7981 19.5729 40.7981C20.0589 40.7981 20.3547 40.8614 20.7561 40.9882L21.1787 38.8754C20.8195 38.7064 20.4603 38.6219 19.8898 38.6219C18.6433 38.6219 17.4179 39.5092 16.5939 41.0093H16.5305L16.3192 38.9177H14.3332V50.5381ZM27.3175 50.8339C30.1909 50.8339 32.7897 48.5943 32.7897 44.749C32.7897 40.8614 30.1909 38.6219 27.3175 38.6219C24.423 38.6219 21.8453 40.8614 21.8453 44.749C21.8453 48.5943 24.423 50.8339 27.3175 50.8339ZM27.3175 48.8267C25.4794 48.8267 24.3596 47.1999 24.3596 44.749C24.3596 42.277 25.4794 40.6502 27.3175 40.6502C29.1345 40.6502 30.2966 42.277 30.2966 44.749C30.2966 47.1999 29.1345 48.8267 27.3175 48.8267ZM39.6612 50.8339C40.9712 50.8339 42.1755 50.1367 43.0629 49.2493H43.1262L43.3164 50.5381H45.3236V33.7202H42.8727V38.0092L42.9783 39.9318C42.0487 39.1289 41.1825 38.6219 39.8514 38.6219C37.2738 38.6219 34.8863 40.9671 34.8863 44.749C34.8863 48.5943 36.7456 50.8339 39.6612 50.8339ZM40.2528 48.8056C38.4358 48.8056 37.4005 47.3478 37.4005 44.7067C37.4005 42.2136 38.7105 40.6502 40.3373 40.6502C41.2036 40.6502 42.0276 40.946 42.8727 41.7277V47.39C42.0487 48.3619 41.2036 48.8056 40.2528 48.8056ZM53.6244 50.8339C56.4978 50.8339 59.0966 48.5943 59.0966 44.749C59.0966 40.8614 56.4978 38.6219 53.6244 38.6219C50.7299 38.6219 48.1522 40.8614 48.1522 44.749C48.1522 48.5943 50.7299 50.8339 53.6244 50.8339ZM53.6244 48.8267C51.7863 48.8267 50.6665 47.1999 50.6665 44.749C50.6665 42.277 51.7863 40.6502 53.6244 40.6502C55.4414 40.6502 56.6035 42.277 56.6035 44.749C56.6035 47.1999 55.4414 48.8267 53.6244 48.8267ZM65.3054 50.8339C66.1717 50.8339 66.9534 50.6015 67.6084 50.3902L67.1647 48.5943C66.8055 48.7422 66.3196 48.8901 65.9181 48.8901C64.7138 48.8901 64.2068 48.1506 64.2068 46.7773V40.8614H67.2492V38.9177H64.2068V35.7062H62.1785L61.9038 38.9177L60.0868 39.0444V40.8614H61.777V46.7562C61.777 49.1859 62.7067 50.8339 65.3054 50.8339ZM73.1046 50.8339C73.9709 50.8339 74.7526 50.6015 75.4076 50.3902L74.9639 48.5943C74.6047 48.7422 74.1188 48.8901 73.7173 48.8901C72.513 48.8901 72.006 48.1506 72.006 46.7773V40.8614H75.0484V38.9177H72.006V35.7062H69.9777L69.703 38.9177L67.886 39.0444V40.8614H69.5762V46.7562C69.5762 49.1859 70.5059 50.8339 73.1046 50.8339ZM77.5729 50.5381H80.0237V38.9177H77.5729V50.5381ZM78.7983 36.7415C79.6857 36.7415 80.3195 36.171 80.3195 35.2836C80.3195 34.4174 79.6857 33.8469 78.7983 33.8469C77.8898 33.8469 77.2982 34.4174 77.2982 35.2836C77.2982 36.171 77.8898 36.7415 78.7983 36.7415Z" fill="white"/>
</svg>
